# xmcd
#
# Track frame offsets:
#   150
#   15317
#   33101
#   49024
#   62130
#   72651
#   85604
#   100275
#   114742
#   125406
#   141501
#   157036
#   167555
#   181483
#   194018
#   209402
#   224984
#   237802
#   253562
#   268233
#   280800
#   293498
#   309182
#   323516
#   334956
#
# Disc length: 4655 seconds
#
# Revision: 0
# Processed by: cddbd v1.5.2PL0 Copyright (c) Steve Scherf et al.
# Submitted via: uFREEDB ActiveX Control 1.5
#
DISCID=7d122d19
DTITLE=Edson and Hudson - Viva a Vida
DYEAR=1900
DGENRE=Country
TTITLE0=Viva a Vida
TTITLE1=Vamos Fazer Festa
TTITLE2=Galera Coracao
TTITLE3=Bicho Bom e Mulher
TTITLE4=O Doutor e a Empregada
TTITLE5=Hoje eu nao posso chorar
TTITLE6=Amor de mais e Amor de Mais
TTITLE7=Hoje eu nao posso ir 
TTITLE8=Do mundo nada se lava
TTITLE9=Eu Quero Mais
TTITLE10=Esqueca que eu te amo
TTITLE11=Quebradas da noite
TTITLE12=Viola esta chorando
TTITLE13=Fuis Buscar
TTITLE14=Ta no meu coracao
TTITLE15=Blusa Vermelha
TTITLE16=Ainda Ontem Chorei de Saudade
TTITLE17=Fala
TTITLE18=Foi Deus
TTITLE19=Saudade de Minha Terra
TTITLE20=Bobeou  A Gente Pinba
TTITLE21=A Gente Vai
TTITLE22=Ela Encasquetou
TTITLE23=Estrada da Vida
TTITLE24=As Andorinhas
EXTD=
EXTT0=
EXTT1=
EXTT2=
EXTT3=
EXTT4=
EXTT5=
EXTT6=
EXTT7=
EXTT8=
EXTT9=
EXTT10=
EXTT11=
EXTT12=
EXTT13=
EXTT14=
EXTT15=
EXTT16=
EXTT17=
EXTT18=
EXTT19=
EXTT20=
EXTT21=
EXTT22=
EXTT23=
EXTT24=
PLAYORDER=
